<mxfile host="app.diagrams.net" modified="2024-03-28T04:06:20.641Z" agent="Mozilla/5.0 (X11; Linux x86_64; rv:124.0) Gecko/20100101 Firefox/124.0" etag="IXwIpqWg3ZioLk8Qb4Lo" scale="1" border="0" version="24.2.0" type="device">
  <diagram name="Page-1" id="bHCJ8cg3ubtAj66GZbE8">
    <mxGraphModel dx="2781" dy="2195" grid="1" gridSize="10" guides="1" tooltips="1" connect="1" arrows="1" fold="1" page="1" pageScale="1" pageWidth="850" pageHeight="1100" math="0" shadow="0">
      <root>
        <mxCell id="0" />
        <mxCell id="1" parent="0" />
        <mxCell id="0l7i1u_6Aww9R5WyrGbd-29" value="VPC" style="points=[[0,0],[0.25,0],[0.5,0],[0.75,0],[1,0],[1,0.25],[1,0.5],[1,0.75],[1,1],[0.75,1],[0.5,1],[0.25,1],[0,1],[0,0.75],[0,0.5],[0,0.25]];outlineConnect=0;gradientColor=none;html=1;whiteSpace=wrap;fontSize=12;fontStyle=0;container=1;pointerEvents=0;collapsible=0;recursiveResize=0;shape=mxgraph.aws4.group;grIcon=mxgraph.aws4.group_vpc2;strokeColor=#8C4FFF;fillColor=none;verticalAlign=top;align=left;spacingLeft=30;fontColor=#AAB7B8;dashed=0;movable=1;resizable=1;rotatable=1;deletable=1;editable=1;locked=0;connectable=1;" parent="1" vertex="1">
          <mxGeometry x="-90" y="90" width="620" height="610" as="geometry" />
        </mxCell>
        <mxCell id="0l7i1u_6Aww9R5WyrGbd-37" value="" style="sketch=0;outlineConnect=0;fontColor=#232F3E;gradientColor=none;fillColor=#8C4FFF;strokeColor=none;dashed=0;verticalLabelPosition=bottom;verticalAlign=top;align=center;html=1;fontSize=12;fontStyle=0;aspect=fixed;pointerEvents=1;shape=mxgraph.aws4.internet_gateway;" parent="0l7i1u_6Aww9R5WyrGbd-29" vertex="1">
          <mxGeometry x="290" y="-20" width="40" height="40" as="geometry" />
        </mxCell>
        <mxCell id="0l7i1u_6Aww9R5WyrGbd-30" value="AWS Cloud" style="points=[[0,0],[0.25,0],[0.5,0],[0.75,0],[1,0],[1,0.25],[1,0.5],[1,0.75],[1,1],[0.75,1],[0.5,1],[0.25,1],[0,1],[0,0.75],[0,0.5],[0,0.25]];outlineConnect=0;gradientColor=none;html=1;whiteSpace=wrap;fontSize=12;fontStyle=0;container=1;pointerEvents=0;collapsible=0;recursiveResize=0;shape=mxgraph.aws4.group;grIcon=mxgraph.aws4.group_aws_cloud_alt;strokeColor=#232F3E;fillColor=none;verticalAlign=top;align=left;spacingLeft=30;fontColor=#232F3E;dashed=0;movable=1;resizable=1;rotatable=1;deletable=1;editable=1;locked=0;connectable=1;" parent="1" vertex="1">
          <mxGeometry x="-130" y="-60" width="690" height="940" as="geometry" />
        </mxCell>
        <mxCell id="0l7i1u_6Aww9R5WyrGbd-31" value="" style="group" parent="0l7i1u_6Aww9R5WyrGbd-30" vertex="1" connectable="0">
          <mxGeometry x="304.00000000000006" y="10" width="93" height="46" as="geometry" />
        </mxCell>
        <mxCell id="0l7i1u_6Aww9R5WyrGbd-32" value="" style="sketch=0;points=[[0,0,0],[0.25,0,0],[0.5,0,0],[0.75,0,0],[1,0,0],[0,1,0],[0.25,1,0],[0.5,1,0],[0.75,1,0],[1,1,0],[0,0.25,0],[0,0.5,0],[0,0.75,0],[1,0.25,0],[1,0.5,0],[1,0.75,0]];outlineConnect=0;fontColor=#232F3E;fillColor=#8C4FFF;strokeColor=#ffffff;dashed=0;verticalLabelPosition=bottom;verticalAlign=top;align=center;html=1;fontSize=12;fontStyle=0;aspect=fixed;shape=mxgraph.aws4.resourceIcon;resIcon=mxgraph.aws4.route_53;" parent="0l7i1u_6Aww9R5WyrGbd-31" vertex="1">
          <mxGeometry width="46" height="46" as="geometry" />
        </mxCell>
        <mxCell id="0l7i1u_6Aww9R5WyrGbd-33" value="" style="sketch=0;points=[[0,0,0],[0.25,0,0],[0.5,0,0],[0.75,0,0],[1,0,0],[0,1,0],[0.25,1,0],[0.5,1,0],[0.75,1,0],[1,1,0],[0,0.25,0],[0,0.5,0],[0,0.75,0],[1,0.25,0],[1,0.5,0],[1,0.75,0]];outlineConnect=0;fontColor=#232F3E;fillColor=#8C4FFF;strokeColor=#ffffff;dashed=0;verticalLabelPosition=bottom;verticalAlign=top;align=center;html=1;fontSize=12;fontStyle=0;aspect=fixed;shape=mxgraph.aws4.resourceIcon;resIcon=mxgraph.aws4.cloudfront;" parent="0l7i1u_6Aww9R5WyrGbd-31" vertex="1">
          <mxGeometry x="53" y="3" width="40" height="40" as="geometry" />
        </mxCell>
        <mxCell id="0l7i1u_6Aww9R5WyrGbd-34" value="" style="sketch=0;outlineConnect=0;fontColor=#232F3E;gradientColor=none;fillColor=#E7157B;strokeColor=none;dashed=0;verticalLabelPosition=bottom;verticalAlign=top;align=center;html=1;fontSize=12;fontStyle=0;aspect=fixed;pointerEvents=1;shape=mxgraph.aws4.monitoring;" parent="0l7i1u_6Aww9R5WyrGbd-30" vertex="1">
          <mxGeometry x="331.16999999999996" y="80" width="37.66" height="28" as="geometry" />
        </mxCell>
        <mxCell id="0l7i1u_6Aww9R5WyrGbd-35" value="" style="endArrow=none;dashed=1;html=1;rounded=0;entryX=1;entryY=1;entryDx=0;entryDy=0;entryPerimeter=0;" parent="0l7i1u_6Aww9R5WyrGbd-30" source="0l7i1u_6Aww9R5WyrGbd-34" target="0l7i1u_6Aww9R5WyrGbd-32" edge="1">
          <mxGeometry width="50" height="50" relative="1" as="geometry">
            <mxPoint x="397.84" y="100" as="sourcePoint" />
            <mxPoint x="397.84" y="28" as="targetPoint" />
          </mxGeometry>
        </mxCell>
        <mxCell id="igtpQacaPrsqMWLBPYPH-6" value="" style="sketch=0;points=[[0,0,0],[0.25,0,0],[0.5,0,0],[0.75,0,0],[1,0,0],[0,1,0],[0.25,1,0],[0.5,1,0],[0.75,1,0],[1,1,0],[0,0.25,0],[0,0.5,0],[0,0.75,0],[1,0.25,0],[1,0.5,0],[1,0.75,0]];points=[[0,0,0],[0.25,0,0],[0.5,0,0],[0.75,0,0],[1,0,0],[0,1,0],[0.25,1,0],[0.5,1,0],[0.75,1,0],[1,1,0],[0,0.25,0],[0,0.5,0],[0,0.75,0],[1,0.25,0],[1,0.5,0],[1,0.75,0]];outlineConnect=0;fontColor=#232F3E;fillColor=#E7157B;strokeColor=#ffffff;dashed=0;verticalLabelPosition=bottom;verticalAlign=top;align=center;html=1;fontSize=12;fontStyle=0;aspect=fixed;shape=mxgraph.aws4.resourceIcon;resIcon=mxgraph.aws4.cloudwatch_2;" parent="0l7i1u_6Aww9R5WyrGbd-30" vertex="1">
          <mxGeometry x="494.9999999999999" y="790" width="78" height="78" as="geometry" />
        </mxCell>
        <mxCell id="0l7i1u_6Aww9R5WyrGbd-79" value="" style="outlineConnect=0;dashed=0;verticalLabelPosition=bottom;verticalAlign=top;align=center;html=1;shape=mxgraph.aws3.lambda_function;fillColor=#F58534;gradientColor=none;" parent="0l7i1u_6Aww9R5WyrGbd-30" vertex="1">
          <mxGeometry x="234.99999999999994" y="793" width="69" height="72" as="geometry" />
        </mxCell>
        <mxCell id="0l7i1u_6Aww9R5WyrGbd-80" value="" style="sketch=0;points=[[0,0,0],[0.25,0,0],[0.5,0,0],[0.75,0,0],[1,0,0],[0,1,0],[0.25,1,0],[0.5,1,0],[0.75,1,0],[1,1,0],[0,0.25,0],[0,0.5,0],[0,0.75,0],[1,0.25,0],[1,0.5,0],[1,0.75,0]];outlineConnect=0;fontColor=#232F3E;fillColor=#7AA116;strokeColor=#ffffff;dashed=0;verticalLabelPosition=bottom;verticalAlign=top;align=center;html=1;fontSize=12;fontStyle=0;aspect=fixed;shape=mxgraph.aws4.resourceIcon;resIcon=mxgraph.aws4.glacier;" parent="0l7i1u_6Aww9R5WyrGbd-30" vertex="1">
          <mxGeometry x="116.99999999999999" y="790" width="78" height="78" as="geometry" />
        </mxCell>
        <mxCell id="0l7i1u_6Aww9R5WyrGbd-81" value="" style="endArrow=none;dashed=1;html=1;rounded=0;entryX=0;entryY=0.5;entryDx=0;entryDy=0;entryPerimeter=0;" parent="0l7i1u_6Aww9R5WyrGbd-30" source="0l7i1u_6Aww9R5WyrGbd-80" target="0l7i1u_6Aww9R5WyrGbd-79" edge="1">
          <mxGeometry width="50" height="50" relative="1" as="geometry">
            <mxPoint x="586" y="637" as="sourcePoint" />
            <mxPoint x="586" y="733" as="targetPoint" />
          </mxGeometry>
        </mxCell>
        <mxCell id="3PzfsafwEc4SxK6MhfoH-5" value="" style="sketch=0;points=[[0,0,0],[0.25,0,0],[0.5,0,0],[0.75,0,0],[1,0,0],[0,1,0],[0.25,1,0],[0.5,1,0],[0.75,1,0],[1,1,0],[0,0.25,0],[0,0.5,0],[0,0.75,0],[1,0.25,0],[1,0.5,0],[1,0.75,0]];outlineConnect=0;fontColor=#232F3E;fillColor=#E7157B;strokeColor=#ffffff;dashed=0;verticalLabelPosition=bottom;verticalAlign=top;align=center;html=1;fontSize=12;fontStyle=0;aspect=fixed;shape=mxgraph.aws4.resourceIcon;resIcon=mxgraph.aws4.sqs;" vertex="1" parent="0l7i1u_6Aww9R5WyrGbd-30">
          <mxGeometry x="380" y="865" width="48" height="48" as="geometry" />
        </mxCell>
        <mxCell id="3PzfsafwEc4SxK6MhfoH-6" value="" style="sketch=0;outlineConnect=0;fontColor=#232F3E;gradientColor=none;fillColor=#E7157B;strokeColor=none;dashed=0;verticalLabelPosition=bottom;verticalAlign=top;align=center;html=1;fontSize=12;fontStyle=0;aspect=fixed;pointerEvents=1;shape=mxgraph.aws4.queue;" vertex="1" parent="0l7i1u_6Aww9R5WyrGbd-30">
          <mxGeometry x="365" y="805.5" width="78" height="47" as="geometry" />
        </mxCell>
        <mxCell id="3PzfsafwEc4SxK6MhfoH-9" value="" style="endArrow=none;dashed=1;html=1;rounded=0;entryX=0;entryY=0.5;entryDx=0;entryDy=0;entryPerimeter=0;" edge="1" parent="0l7i1u_6Aww9R5WyrGbd-30" source="3PzfsafwEc4SxK6MhfoH-6" target="igtpQacaPrsqMWLBPYPH-6">
          <mxGeometry width="50" height="50" relative="1" as="geometry">
            <mxPoint x="563" y="868" as="sourcePoint" />
            <mxPoint x="677" y="1031" as="targetPoint" />
          </mxGeometry>
        </mxCell>
        <mxCell id="3PzfsafwEc4SxK6MhfoH-10" value="" style="endArrow=none;dashed=1;html=1;rounded=0;exitX=1;exitY=0.5;exitDx=0;exitDy=0;exitPerimeter=0;" edge="1" parent="0l7i1u_6Aww9R5WyrGbd-30" source="0l7i1u_6Aww9R5WyrGbd-79" target="3PzfsafwEc4SxK6MhfoH-6">
          <mxGeometry width="50" height="50" relative="1" as="geometry">
            <mxPoint x="275" y="805.5" as="sourcePoint" />
            <mxPoint x="389" y="968.5" as="targetPoint" />
          </mxGeometry>
        </mxCell>
        <mxCell id="3PzfsafwEc4SxK6MhfoH-12" value="&lt;div align=&quot;left&quot;&gt;Availability Zone&lt;/div&gt;" style="fillColor=none;strokeColor=#147EBA;dashed=1;verticalAlign=top;fontStyle=0;fontColor=#147EBA;whiteSpace=wrap;html=1;align=left;" vertex="1" parent="0l7i1u_6Aww9R5WyrGbd-30">
          <mxGeometry x="65" y="123" width="575" height="660" as="geometry" />
        </mxCell>
        <mxCell id="0l7i1u_6Aww9R5WyrGbd-65" value="Front-end" style="points=[[0,0],[0.25,0],[0.5,0],[0.75,0],[1,0],[1,0.25],[1,0.5],[1,0.75],[1,1],[0.75,1],[0.5,1],[0.25,1],[0,1],[0,0.75],[0,0.5],[0,0.25]];outlineConnect=0;gradientColor=none;html=1;whiteSpace=wrap;fontSize=12;fontStyle=0;container=0;pointerEvents=0;collapsible=0;recursiveResize=0;shape=mxgraph.aws4.group;grIcon=mxgraph.aws4.group_security_group;grStroke=0;strokeColor=#7AA116;fillColor=#F2F6E8;verticalAlign=top;align=left;spacingLeft=30;fontColor=#248814;dashed=0;" parent="1" vertex="1">
          <mxGeometry x="-40" y="204" width="530" height="206" as="geometry" />
        </mxCell>
        <mxCell id="0l7i1u_6Aww9R5WyrGbd-66" value="" style="endArrow=none;dashed=1;html=1;rounded=0;" parent="1" source="0l7i1u_6Aww9R5WyrGbd-82" target="0l7i1u_6Aww9R5WyrGbd-37" edge="1">
          <mxGeometry width="50" height="50" relative="1" as="geometry">
            <mxPoint x="220.5" y="267.74983096686947" as="sourcePoint" />
            <mxPoint x="481" y="167.71428571428578" as="targetPoint" />
          </mxGeometry>
        </mxCell>
        <mxCell id="0l7i1u_6Aww9R5WyrGbd-67" value="" style="sketch=0;outlineConnect=0;fontColor=#232F3E;gradientColor=none;fillColor=#8C4FFF;strokeColor=none;dashed=0;verticalLabelPosition=bottom;verticalAlign=top;align=center;html=1;fontSize=12;fontStyle=0;aspect=fixed;pointerEvents=1;shape=mxgraph.aws4.nat_gateway;" parent="1" vertex="1">
          <mxGeometry x="275" y="268" width="78" height="78" as="geometry" />
        </mxCell>
        <mxCell id="0l7i1u_6Aww9R5WyrGbd-68" value="Back-end &amp;amp; DB" style="points=[[0,0],[0.25,0],[0.5,0],[0.75,0],[1,0],[1,0.25],[1,0.5],[1,0.75],[1,1],[0.75,1],[0.5,1],[0.25,1],[0,1],[0,0.75],[0,0.5],[0,0.25]];outlineConnect=0;gradientColor=none;html=1;whiteSpace=wrap;fontSize=12;fontStyle=0;container=0;pointerEvents=0;collapsible=0;recursiveResize=0;shape=mxgraph.aws4.group;grIcon=mxgraph.aws4.group_security_group;grStroke=0;strokeColor=#00A4A6;fillColor=#E6F6F7;verticalAlign=top;align=left;spacingLeft=30;fontColor=#147EBA;dashed=0;" parent="1" vertex="1">
          <mxGeometry x="-40" y="420" width="530" height="210" as="geometry" />
        </mxCell>
        <mxCell id="0l7i1u_6Aww9R5WyrGbd-69" value="" style="sketch=0;points=[[0,0,0],[0.25,0,0],[0.5,0,0],[0.75,0,0],[1,0,0],[0,1,0],[0.25,1,0],[0.5,1,0],[0.75,1,0],[1,1,0],[0,0.25,0],[0,0.5,0],[0,0.75,0],[1,0.25,0],[1,0.5,0],[1,0.75,0]];outlineConnect=0;fontColor=#232F3E;fillColor=#C925D1;strokeColor=#ffffff;dashed=0;verticalLabelPosition=bottom;verticalAlign=top;align=center;html=1;fontSize=12;fontStyle=0;aspect=fixed;shape=mxgraph.aws4.resourceIcon;resIcon=mxgraph.aws4.rds;" parent="1" vertex="1">
          <mxGeometry x="44" y="495.25" width="59.5" height="59.5" as="geometry" />
        </mxCell>
        <mxCell id="0l7i1u_6Aww9R5WyrGbd-70" value="" style="sketch=0;points=[[0,0,0],[0.25,0,0],[0.5,0,0],[0.75,0,0],[1,0,0],[0,1,0],[0.25,1,0],[0.5,1,0],[0.75,1,0],[1,1,0],[0,0.25,0],[0,0.5,0],[0,0.75,0],[1,0.25,0],[1,0.5,0],[1,0.75,0]];outlineConnect=0;fontColor=#232F3E;fillColor=#C925D1;strokeColor=#ffffff;dashed=0;verticalLabelPosition=bottom;verticalAlign=top;align=center;html=1;fontSize=12;fontStyle=0;aspect=fixed;shape=mxgraph.aws4.resourceIcon;resIcon=mxgraph.aws4.elasticache;" parent="1" vertex="1">
          <mxGeometry x="340" y="495.25" width="60" height="60" as="geometry" />
        </mxCell>
        <mxCell id="0l7i1u_6Aww9R5WyrGbd-71" value="" style="endArrow=none;dashed=1;html=1;rounded=0;entryX=1;entryY=0.5;entryDx=0;entryDy=0;entryPerimeter=0;exitX=0;exitY=0.5;exitDx=0;exitDy=0;exitPerimeter=0;" parent="1" source="0l7i1u_6Aww9R5WyrGbd-70" target="3PzfsafwEc4SxK6MhfoH-4" edge="1">
          <mxGeometry width="50" height="50" relative="1" as="geometry">
            <mxPoint x="350" y="525" as="sourcePoint" />
            <mxPoint x="226.99999999999977" y="486" as="targetPoint" />
          </mxGeometry>
        </mxCell>
        <mxCell id="0l7i1u_6Aww9R5WyrGbd-72" value="" style="endArrow=none;dashed=1;html=1;rounded=0;entryX=0;entryY=0.5;entryDx=0;entryDy=0;entryPerimeter=0;" parent="1" source="0l7i1u_6Aww9R5WyrGbd-69" target="3PzfsafwEc4SxK6MhfoH-4" edge="1">
          <mxGeometry width="50" height="50" relative="1" as="geometry">
            <mxPoint x="242.75" y="530" as="sourcePoint" />
            <mxPoint x="226.99999999999977" y="564" as="targetPoint" />
          </mxGeometry>
        </mxCell>
        <mxCell id="0l7i1u_6Aww9R5WyrGbd-74" value="" style="endArrow=none;dashed=1;html=1;rounded=0;exitX=0.5;exitY=1;exitDx=0;exitDy=0;exitPerimeter=0;entryX=0.5;entryY=0;entryDx=0;entryDy=0;entryPerimeter=0;" parent="1" source="3PzfsafwEc4SxK6MhfoH-4" target="igtpQacaPrsqMWLBPYPH-6" edge="1">
          <mxGeometry width="50" height="50" relative="1" as="geometry">
            <mxPoint x="265.9999999999998" y="564" as="sourcePoint" />
            <mxPoint x="560" y="933" as="targetPoint" />
          </mxGeometry>
        </mxCell>
        <mxCell id="0l7i1u_6Aww9R5WyrGbd-82" value="" style="sketch=0;points=[[0,0,0],[0.25,0,0],[0.5,0,0],[0.75,0,0],[1,0,0],[0,1,0],[0.25,1,0],[0.5,1,0],[0.75,1,0],[1,1,0],[0,0.25,0],[0,0.5,0],[0,0.75,0],[1,0.25,0],[1,0.5,0],[1,0.75,0]];outlineConnect=0;fontColor=#232F3E;fillColor=#ED7100;strokeColor=#ffffff;dashed=0;verticalLabelPosition=bottom;verticalAlign=top;align=center;html=1;fontSize=12;fontStyle=0;aspect=fixed;shape=mxgraph.aws4.resourceIcon;resIcon=mxgraph.aws4.ec2;" parent="1" vertex="1">
          <mxGeometry x="181" y="268" width="78" height="78" as="geometry" />
        </mxCell>
        <mxCell id="0l7i1u_6Aww9R5WyrGbd-85" value="" style="endArrow=none;dashed=1;html=1;rounded=0;entryX=0.5;entryY=1;entryDx=0;entryDy=0;entryPerimeter=0;exitX=0.5;exitY=0;exitDx=0;exitDy=0;exitPerimeter=0;" parent="1" source="3PzfsafwEc4SxK6MhfoH-4" target="0l7i1u_6Aww9R5WyrGbd-82" edge="1">
          <mxGeometry width="50" height="50" relative="1" as="geometry">
            <mxPoint x="-160" y="410" as="sourcePoint" />
            <mxPoint x="380" y="370" as="targetPoint" />
          </mxGeometry>
        </mxCell>
        <mxCell id="3PzfsafwEc4SxK6MhfoH-2" value="" style="outlineConnect=0;dashed=0;verticalLabelPosition=bottom;verticalAlign=top;align=center;html=1;shape=mxgraph.aws3.ec2_compute_container;fillColor=#F58534;gradientColor=none;" vertex="1" parent="1">
          <mxGeometry x="109.5" y="289.75" width="60" height="34.5" as="geometry" />
        </mxCell>
        <mxCell id="3PzfsafwEc4SxK6MhfoH-4" value="" style="sketch=0;points=[[0,0,0],[0.25,0,0],[0.5,0,0],[0.75,0,0],[1,0,0],[0,1,0],[0.25,1,0],[0.5,1,0],[0.75,1,0],[1,1,0],[0,0.25,0],[0,0.5,0],[0,0.75,0],[1,0.25,0],[1,0.5,0],[1,0.75,0]];outlineConnect=0;fontColor=#232F3E;fillColor=#ED7100;strokeColor=#ffffff;dashed=0;verticalLabelPosition=bottom;verticalAlign=top;align=center;html=1;fontSize=12;fontStyle=0;aspect=fixed;shape=mxgraph.aws4.resourceIcon;resIcon=mxgraph.aws4.eks;" vertex="1" parent="1">
          <mxGeometry x="181" y="486" width="78" height="78" as="geometry" />
        </mxCell>
        <mxCell id="0l7i1u_6Aww9R5WyrGbd-38" value="" style="endArrow=none;dashed=1;html=1;rounded=0;" parent="1" source="0l7i1u_6Aww9R5WyrGbd-37" target="0l7i1u_6Aww9R5WyrGbd-34" edge="1">
          <mxGeometry width="50" height="50" relative="1" as="geometry">
            <mxPoint x="703" y="285" as="sourcePoint" />
            <mxPoint x="505" y="98" as="targetPoint" />
          </mxGeometry>
        </mxCell>
        <mxCell id="3PzfsafwEc4SxK6MhfoH-11" value="" style="fillColor=none;strokeColor=#5A6C86;dashed=1;verticalAlign=top;fontStyle=0;fontColor=#5A6C86;whiteSpace=wrap;html=1;" vertex="1" parent="1">
          <mxGeometry x="103.5" y="244" width="160.5" height="126" as="geometry" />
        </mxCell>
        <mxCell id="0l7i1u_6Aww9R5WyrGbd-95" value="Untitled Layer" parent="0" />
        <mxCell id="0l7i1u_6Aww9R5WyrGbd-99" value="" style="sketch=0;outlineConnect=0;fontColor=#232F3E;gradientColor=none;fillColor=#232F3D;strokeColor=none;dashed=0;verticalLabelPosition=bottom;verticalAlign=top;align=center;html=1;fontSize=12;fontStyle=0;aspect=fixed;pointerEvents=1;shape=mxgraph.aws4.internet_alt2;" parent="0l7i1u_6Aww9R5WyrGbd-95" vertex="1">
          <mxGeometry x="190" y="-170" width="60" height="60" as="geometry" />
        </mxCell>
        <mxCell id="0l7i1u_6Aww9R5WyrGbd-100" value="" style="sketch=0;outlineConnect=0;fontColor=#232F3E;gradientColor=none;fillColor=#232F3D;strokeColor=none;dashed=0;verticalLabelPosition=bottom;verticalAlign=top;align=center;html=1;fontSize=12;fontStyle=0;aspect=fixed;pointerEvents=1;shape=mxgraph.aws4.user;" parent="0l7i1u_6Aww9R5WyrGbd-95" vertex="1">
          <mxGeometry x="190" y="-260" width="60" height="60" as="geometry" />
        </mxCell>
        <mxCell id="0l7i1u_6Aww9R5WyrGbd-101" value="" style="endArrow=none;dashed=1;html=1;rounded=0;" parent="0l7i1u_6Aww9R5WyrGbd-95" source="0l7i1u_6Aww9R5WyrGbd-99" target="0l7i1u_6Aww9R5WyrGbd-100" edge="1">
          <mxGeometry width="50" height="50" relative="1" as="geometry">
            <mxPoint x="495.18" y="22.000000000000007" as="sourcePoint" />
            <mxPoint x="393.18" y="-110" as="targetPoint" />
          </mxGeometry>
        </mxCell>
        <mxCell id="0l7i1u_6Aww9R5WyrGbd-102" value="" style="endArrow=none;dashed=1;html=1;rounded=0;entryX=0.492;entryY=1.154;entryDx=0;entryDy=0;entryPerimeter=0;exitX=0;exitY=0;exitDx=0;exitDy=0;exitPerimeter=0;" parent="0l7i1u_6Aww9R5WyrGbd-95" source="0l7i1u_6Aww9R5WyrGbd-33" target="0l7i1u_6Aww9R5WyrGbd-99" edge="1">
          <mxGeometry width="50" height="50" relative="1" as="geometry">
            <mxPoint x="485" y="-37" as="sourcePoint" />
            <mxPoint x="488.75" y="110" as="targetPoint" />
          </mxGeometry>
        </mxCell>
      </root>
    </mxGraphModel>
  </diagram>
</mxfile>
